<svg width="47" height="41" viewBox="0 0 47 41" fill="none" xmlns="http://www.w3.org/2000/svg">
<g clip-path="url(#clip0_67_10)">
<path d="M44.2262 4.49893V16.4989H31.738" stroke="white" stroke-width="4.16272" stroke-linecap="round" stroke-linejoin="round"/>
<path d="M39.001 26.4951C37.6481 30.1749 35.087 33.3325 31.7039 35.4921C28.3209 37.6517 24.2991 38.6961 20.2446 38.4681C16.19 38.2403 12.3224 36.7523 9.22447 34.2283C6.1266 31.7045 3.96627 28.2815 3.0691 24.4751C2.1719 20.6689 2.58645 16.6854 4.25025 13.1252C5.91407 9.56496 8.737 6.62078 12.2936 4.73634C15.8503 2.8519 19.948 2.12926 23.9692 2.67734C27.9906 3.22544 31.7175 5.01454 34.5885 7.77506L44.2252 16.4951" stroke="white" stroke-width="4.16272" stroke-linecap="round" stroke-linejoin="round"/>
</g>
<defs>
<clipPath id="clip0_67_10">
<rect width="45.7899" height="40" fill="white" transform="translate(0.518555 0.5)"/>
</clipPath>
</defs>
</svg>
